<svg width="20" height="20" viewBox="0 0 20 20" fill="none" xmlns="http://www.w3.org/2000/svg">
<path d="M7.5 3.75C7.5 4.74456 7.10491 5.69839 6.40165 6.40165C5.69839 7.10491 4.74456 7.5 3.75 7.5C2.75544 7.5 1.80161 7.10491 1.09835 6.40165C0.395088 5.69839 0 4.74456 0 3.75C0 2.75544 0.395088 1.80161 1.09835 1.09835C1.80161 0.395088 2.75544 0 3.75 0C4.74456 0 5.69839 0.395088 6.40165 1.09835C7.10491 1.80161 7.5 2.75544 7.5 3.75ZM1.25 3.75C1.25 4.41304 1.51339 5.04893 1.98223 5.51777C2.45107 5.98661 3.08696 6.25 3.75 6.25C4.41304 6.25 5.04893 5.98661 5.51777 5.51777C5.98661 5.04893 6.25 4.41304 6.25 3.75C6.25 3.08696 5.98661 2.45107 5.51777 1.98223C5.04893 1.51339 4.41304 1.25 3.75 1.25C3.08696 1.25 2.45107 1.51339 1.98223 1.98223C1.51339 2.45107 1.25 3.08696 1.25 3.75Z" fill="white"/>
<path d="M11.25 7.5H11.875C12.4814 7.49993 13.0671 7.72024 13.5231 8.11991C13.9791 8.51958 14.2743 9.07136 14.3538 9.6725L18.2413 7.945C18.4315 7.86021 18.64 7.82433 18.8477 7.84061C19.0554 7.85688 19.2557 7.92481 19.4304 8.0382C19.6052 8.1516 19.7488 8.30687 19.8483 8.4899C19.9478 8.67294 19.9999 8.87793 20 9.08625V18.4137C19.9998 18.6219 19.9477 18.8267 19.8483 19.0096C19.7488 19.1925 19.6053 19.3477 19.4308 19.461C19.2562 19.5744 19.0561 19.6424 18.8486 19.6588C18.641 19.6752 18.4327 19.6395 18.2425 19.555L14.3538 17.8275C14.2743 18.4286 13.9791 18.9804 13.5231 19.3801C13.0671 19.7798 12.4814 20.0001 11.875 20H2.5C1.83696 20 1.20107 19.7366 0.732233 19.2678C0.263392 18.7989 0 18.163 0 17.5V10C0 9.33696 0.263392 8.70107 0.732233 8.23223C1.20107 7.76339 1.83696 7.5 2.5 7.5H11.25ZM18.75 18.4125V9.0875L14.375 11.0312V16.4688L18.75 18.4137V18.4125ZM1.25 10V17.5C1.25 17.8315 1.3817 18.1495 1.61612 18.3839C1.85054 18.6183 2.16848 18.75 2.5 18.75H11.875C12.2065 18.75 12.5245 18.6183 12.7589 18.3839C12.9933 18.1495 13.125 17.8315 13.125 17.5V10C13.125 9.66848 12.9933 9.35054 12.7589 9.11612C12.5245 8.8817 12.2065 8.75 11.875 8.75H2.5C2.16848 8.75 1.85054 8.8817 1.61612 9.11612C1.3817 9.35054 1.25 9.66848 1.25 10Z" fill="white"/>
<path d="M11.25 7.5C12.2446 7.5 13.1984 7.10491 13.9017 6.40165C14.6049 5.69839 15 4.74456 15 3.75C15 2.75544 14.6049 1.80161 13.9017 1.09835C13.1984 0.395088 12.2446 0 11.25 0C10.2554 0 9.30161 0.395088 8.59835 1.09835C7.89509 1.80161 7.5 2.75544 7.5 3.75C7.5 4.74456 7.89509 5.69839 8.59835 6.40165C9.30161 7.10491 10.2554 7.5 11.25 7.5ZM8.75 3.75C8.75 3.08696 9.01339 2.45107 9.48223 1.98223C9.95107 1.51339 10.587 1.25 11.25 1.25C11.913 1.25 12.5489 1.51339 13.0178 1.98223C13.4866 2.45107 13.75 3.08696 13.75 3.75C13.75 4.41304 13.4866 5.04893 13.0178 5.51777C12.5489 5.98661 11.913 6.25 11.25 6.25C10.587 6.25 9.95107 5.98661 9.48223 5.51777C9.01339 5.04893 8.75 4.41304 8.75 3.75Z" fill="white"/>
</svg>
