<svg width="40" height="40" viewBox="0 0 40 40" fill="none" xmlns="http://www.w3.org/2000/svg">
<g clip-path="url(#clip0)">
<path d="M22.0312 18.0319C19.2656 16.7238 16.4219 16.7851 13.5006 18.3507C10.71 19.8476 9.48375 22.2888 10.0944 25.5057C8.96438 26.1832 7.90813 26.6582 7.03938 27.3701C5.61125 28.5382 5.2075 30.2901 5.765 31.8638C6.04313 32.6544 6.44563 33.0719 7.37125 33.0694C13.7525 33.0488 20.1338 33.0488 26.5131 33.0413C17.01 25.1257 19.6319 20.2382 22.0312 18.0351" fill="#BBBBBC"/>
<path d="M28.035 17.4719L22.7356 15.9294C22.5147 15.0555 22.1691 14.2179 21.7094 13.4425L24.3575 8.59502C24.6 8.15314 24.1175 7.66939 23.6744 7.91314C22.065 8.79654 20.4559 9.68029 18.8469 10.5644C18.0638 10.0921 17.215 9.73867 16.3281 9.51564C15.8025 7.72627 15.2781 5.93564 14.7531 4.14689C14.6131 3.67127 13.9306 3.67002 13.7913 4.14689C13.2706 5.93752 12.7481 7.72939 12.2269 9.52064C11.3569 9.74249 10.5235 10.0888 9.7525 10.5488C8.125 9.65939 6.4975 8.77002 4.87188 7.88002C4.43 7.64002 3.945 8.12127 4.18938 8.56439C5.08125 10.1888 5.9725 11.8125 6.86563 13.4363C6.40221 14.2151 6.05461 15.0573 5.83375 15.9363C4.07563 16.4513 2.31563 16.9663 0.558752 17.4825C0.0843766 17.6219 0.0812516 18.3056 0.558752 18.4444C2.31813 18.9563 4.07563 19.4681 5.83625 19.9794C6.06241 20.8743 6.41915 21.731 6.895 22.5219C6.01688 24.1269 5.14 25.7338 4.26313 27.3394C4.02 27.7813 4.50188 28.265 4.94438 28.0225L9.75563 25.3819C10.5346 25.8455 11.3767 26.1937 12.2556 26.4156C12.7688 28.1763 13.2863 29.9325 13.8006 31.6894C13.9406 32.1663 14.625 32.1688 14.7625 31.6894C15.2738 29.9338 15.7863 28.1794 16.2969 26.4231C17.1853 26.2015 18.0362 25.8497 18.8219 25.3794C20.4156 26.2494 22.0106 27.12 23.605 27.9919C23.6496 28.0297 23.7018 28.0577 23.7581 28.0738C23.8143 28.09 23.8733 28.094 23.9313 28.0856C24.0491 28.0768 24.1598 28.0258 24.2431 27.9419C24.3384 27.857 24.3971 27.7385 24.4069 27.6113C24.4148 27.5525 24.4102 27.4928 24.3935 27.436C24.3768 27.3791 24.3484 27.3264 24.31 27.2813C23.4363 25.6913 22.5625 24.1 21.6894 22.5075C22.1552 21.7225 22.5047 20.8741 22.7269 19.9888L28.0294 18.435C28.505 18.2956 28.5069 17.6113 28.0294 17.4719" fill="#FBB041"/>
<path d="M14.2062 25.865C18.5941 25.865 22.1512 22.3079 22.1512 17.92C22.1512 13.5321 18.5941 9.97501 14.2062 9.97501C9.81834 9.97501 6.26125 13.5321 6.26125 17.92C6.26125 22.3079 9.81834 25.865 14.2062 25.865Z" fill="#F9EC21"/>
<path d="M10.0938 25.5082C9.48313 22.2913 10.7094 19.8457 13.5 18.3519C17.2313 16.3519 20.84 16.7975 24.3181 19.4313C26.1925 17.3157 28.465 16.385 31.1363 17.7788C33.4469 18.9819 34.1631 21.1038 33.8544 23.7032C34.4419 23.7575 34.9744 23.7819 35.5006 23.8625C39.2631 24.4332 41.32 29.0319 39.2137 32.2657C38.9506 32.6694 38.2756 33.0163 37.7944 33.0175C27.6538 33.06 17.5131 33.0382 7.37125 33.0707C6.44563 33.0732 6.04375 32.6569 5.765 31.865C5.20688 30.29 5.61375 28.5394 7.03938 27.3713C7.9075 26.6588 8.965 26.1844 10.0938 25.5082Z" fill="#F5F6FA"/>
</g>
<defs>
<clipPath id="clip0">
<rect width="40" height="40" fill="white"/>
</clipPath>
</defs>
</svg>
