<svg width="24" height="24" viewBox="0 0 24 24" fill="none" xmlns="http://www.w3.org/2000/svg">
<path d="M4 13.999L13 14C13.5046 13.9998 13.9906 14.1904 14.3605 14.5335C14.7305 14.8766 14.9572 15.3468 14.995 15.85L15 16V17.5C14.999 21 11.284 22 8.5 22C5.778 22 2.165 21.044 2.005 17.73L2 17.5V15.999C2 14.945 2.816 14.081 3.85 14.004L4 14V13.999ZM15.22 14H20C21.054 14 21.918 14.816 21.994 15.85L22 16V17C21.999 20.062 19.142 21 17 21C16.2745 21.0017 15.5529 20.8931 14.86 20.678C15.196 20.292 15.467 19.851 15.662 19.351C16.1013 19.4492 16.5499 19.4991 17 19.5L17.267 19.494C18.252 19.451 20.353 19.131 20.493 17.205L20.5 17V16C20.4998 15.883 20.4588 15.7698 20.3839 15.6799C20.309 15.5901 20.205 15.5292 20.09 15.508L20 15.5H15.949C15.8663 15.0105 15.6617 14.5496 15.354 14.16L15.22 14H20H15.22ZM4 15.499L3.9 15.509C3.80402 15.529 3.71584 15.5762 3.646 15.645C3.57718 15.7144 3.52994 15.8023 3.51 15.898L3.5 15.999V17.5C3.5 18.509 3.95 19.222 4.917 19.742C5.743 20.187 6.92 20.456 8.183 20.495L8.5 20.5L8.817 20.495C10.08 20.456 11.256 20.187 12.083 19.742C12.989 19.254 13.442 18.597 13.495 17.685L13.5 17.499V16C13.4998 15.883 13.4588 15.7698 13.3839 15.6799C13.309 15.5901 13.205 15.5292 13.09 15.508L13 15.5L4 15.499ZM8.5 3C9.69348 3 10.8381 3.47411 11.682 4.31802C12.5259 5.16193 13 6.30653 13 7.5C13 8.69347 12.5259 9.83807 11.682 10.682C10.8381 11.5259 9.69348 12 8.5 12C7.30653 12 6.16193 11.5259 5.31802 10.682C4.47411 9.83807 4 8.69347 4 7.5C4 6.30653 4.47411 5.16193 5.31802 4.31802C6.16193 3.47411 7.30653 3 8.5 3ZM17.5 5C18.4283 5 19.3185 5.36875 19.9749 6.02513C20.6313 6.6815 21 7.57174 21 8.5C21 9.42826 20.6313 10.3185 19.9749 10.9749C19.3185 11.6313 18.4283 12 17.5 12C16.5717 12 15.6815 11.6313 15.0251 10.9749C14.3688 10.3185 14 9.42826 14 8.5C14 7.57174 14.3688 6.6815 15.0251 6.02513C15.6815 5.36875 16.5717 5 17.5 5ZM8.5 4.5C6.846 4.5 5.5 5.846 5.5 7.5C5.5 9.154 6.846 10.5 8.5 10.5C10.154 10.5 11.5 9.154 11.5 7.5C11.5 5.846 10.154 4.5 8.5 4.5ZM17.5 6.5C16.397 6.5 15.5 7.397 15.5 8.5C15.5 9.603 16.397 10.5 17.5 10.5C18.603 10.5 19.5 9.603 19.5 8.5C19.5 7.397 18.603 6.5 17.5 6.5Z" fill="white"/>
</svg>
