<svg width="20" height="20" viewBox="0 0 20 20" fill="none" xmlns="http://www.w3.org/2000/svg">
<path d="M12.485 10C12.485 10.1989 12.406 10.3897 12.2653 10.5303C12.1247 10.671 11.9339 10.75 11.735 10.75C11.5361 10.75 11.3453 10.671 11.2047 10.5303C11.064 10.3897 10.985 10.1989 10.985 10C10.985 9.80109 11.064 9.61032 11.2047 9.46967C11.3453 9.32902 11.5361 9.25 11.735 9.25C11.9339 9.25 12.1247 9.32902 12.2653 9.46967C12.406 9.61032 12.485 9.80109 12.485 10Z" fill="white"/>
<path d="M9.60299 2.012C9.53006 1.99634 9.45456 1.99719 9.38201 2.01449C9.30945 2.03179 9.24169 2.06511 9.18368 2.11199C9.12567 2.15888 9.07889 2.21815 9.04676 2.28546C9.01463 2.35277 8.99796 2.42642 8.99799 2.501V17.501C8.99796 17.5756 9.01463 17.6492 9.04676 17.7165C9.07889 17.7839 9.12567 17.8431 9.18368 17.89C9.24169 17.9369 9.30945 17.9702 9.38201 17.9875C9.45456 18.0048 9.53006 18.0057 9.60299 17.99L16.603 16.489C16.7148 16.4647 16.8149 16.4029 16.8866 16.3137C16.9584 16.2245 16.9973 16.1134 16.997 15.999V4C16.9968 3.88578 16.9575 3.77506 16.8856 3.68628C16.8138 3.59749 16.7137 3.53599 16.602 3.512L9.60199 2.013L9.60299 2.012ZM9.99799 16.882V3.12L15.998 4.405V15.597L9.99799 16.883V16.882Z" fill="white"/>
<path d="M7.99999 16.997V15.997H3.99799V4.002H7.99999V3.002H3.49799C3.36538 3.002 3.2382 3.05468 3.14443 3.14845C3.05066 3.24221 2.99799 3.36939 2.99799 3.502V16.497C2.99799 16.6296 3.05066 16.7568 3.14443 16.8506C3.2382 16.9443 3.36538 16.997 3.49799 16.997H7.99999Z" fill="white"/>
</svg>
