<svg width="24" height="24" viewBox="0 0 24 24" fill="none" xmlns="http://www.w3.org/2000/svg">
<path d="M22.0283 11.7257L15.5759 0.357234C15.4522 0.139368 15.2223 0.00341896 14.9718 0.000127214C14.7201 -0.00260023 14.4878 0.126577 14.3584 0.341105L10.617 6.54425L7.10548 0.357234C6.98185 0.139415 6.75195 0.00346598 6.50149 0.000127214C6.25259 -0.00466933 6.01756 0.126483 5.88815 0.340917L1.66418 7.33883C1.19196 8.12114 0.877502 8.86126 0.877502 9.93056C0.877502 12.9456 3.33046 15.3986 6.34551 15.3986C6.34725 15.3986 6.34899 15.3985 6.35073 15.3985C6.33672 15.5973 6.32914 15.7936 6.32914 15.9812C6.32914 18.2102 7.20889 20.2578 8.80628 21.7468C10.3651 23.1998 12.4674 24 14.7258 24C19.4342 24 23.1225 20.4291 23.1225 15.8704C23.1225 14.4202 22.7441 12.9869 22.0283 11.7257ZM6.34546 13.9878C4.1083 13.9878 2.28825 12.1677 2.28825 9.93052C2.28825 9.2692 2.44099 8.78179 2.87197 8.06781L6.47332 2.10143L9.87402 8.09316C9.90026 8.13943 9.92519 8.18491 9.94931 8.23C9.96234 8.25982 9.97748 8.28874 9.99464 8.31667C10.2825 8.87866 10.4028 9.36119 10.4028 9.93052C10.4027 12.1677 8.58262 13.9878 6.34546 13.9878ZM19.678 20.6645C18.3743 21.9057 16.6156 22.5892 14.7258 22.5892C12.8255 22.5892 11.0649 21.9236 9.76817 20.7148C8.46017 19.4956 7.73985 17.8145 7.73985 15.9811C7.73985 15.7387 7.75536 15.4708 7.78386 15.2062C10.1033 14.5731 11.8135 12.4479 11.8135 9.93056C11.8135 9.23854 11.6856 8.62882 11.3976 7.98166L14.9439 2.10186L20.8013 12.422C21.3969 13.4714 21.7117 14.6638 21.7117 15.8704C21.7117 17.7133 20.9895 19.416 19.678 20.6645Z" fill="white"/>
<path d="M12.3157 16.3852C12.0402 16.6607 12.0402 17.1072 12.3157 17.3827C12.5911 17.6582 13.0377 17.6582 13.3132 17.3827C14.0921 16.6038 15.3595 16.6038 16.1384 17.3827C16.2762 17.5205 16.4567 17.5894 16.6372 17.5894C16.8176 17.5894 16.9982 17.5205 17.1359 17.3827C17.4114 17.1072 17.4114 16.6607 17.1359 16.3852C15.807 15.0563 13.6446 15.0563 12.3157 16.3852Z" fill="white"/>
<path d="M14.7258 12.8209C13.1301 12.8209 11.6299 13.4423 10.5016 14.5706C10.2261 14.8461 10.2261 15.2927 10.5016 15.5682C10.777 15.8437 11.2237 15.8437 11.4991 15.5682C12.361 14.7063 13.5069 14.2316 14.7258 14.2316C15.9447 14.2316 17.0907 14.7063 17.9525 15.5682C18.0903 15.7059 18.2708 15.7748 18.4513 15.7748C18.6318 15.7748 18.8123 15.7059 18.95 15.5682C19.2255 15.2928 19.2255 14.8461 18.95 14.5706C17.8217 13.4423 16.3215 12.8209 14.7258 12.8209Z" fill="white"/>
<path d="M14.7258 19.5004C15.1154 19.5004 15.4312 19.1846 15.4312 18.795C15.4312 18.4055 15.1154 18.0897 14.7258 18.0897C14.3363 18.0897 14.0204 18.4055 14.0204 18.795C14.0204 19.1846 14.3363 19.5004 14.7258 19.5004Z" fill="white"/>
</svg>
