<svg width="24" height="24" viewBox="0 0 24 24" fill="none" xmlns="http://www.w3.org/2000/svg">
<path d="M5 18C5 18 2 9.99997 2 5.99997C2 1.99997 4 1.99997 4 1.99997H5C5 1.99997 6 1.99997 6 2.99997C6 3.99997 5 3.99997 5 5.99997C5 7.99997 8 9.99997 8 13C8 16 5 18 5 18ZM15 17C16.1 17 17 17.9 17 19V20C17 21.1 16.1 22 15 22H9C7 22 6 20.2 6 20.2C5.8 20 5.7 19.6 6 19.4C6 19.4 9 16.9 10 16.9H15V17ZM13.7 3.39997L12.3 6.79997L13.7 10.2L11.7 15L10 13.6L11.4 10.2L10 6.79997L12 1.99997L13.7 3.39997ZM17.9 3.39997L16.5 6.79997L17.9 10.2L15.9 15L14.2 13.6L15.6 10.2L14.2 6.79997L16.2 1.99997L17.9 3.39997ZM22 3.39997L20.6 6.79997L22 10.2L20 15L18.3 13.6L19.7 10.2L18.3 6.79997L20.3 1.99997L22 3.39997Z" fill="white"/>
</svg>
