<svg xmlns="http://www.w3.org/2000/svg" viewBox="0 0 500 500"><g id="freepik--background-simple--inject-32"><path d="M461.12,106.18q-2.37-4-5-7.9C433,63.94,393.06,40.44,353.82,29.82a231.78,231.78,0,0,0-52.71-7.69c-116.62-3.95-163.06,88-201.61,111.68S1.67,198,5.62,283s65.23,165,183.82,170,126.49-48.42,192.71-68.19c43.81-13.08,75-57.26,90.19-98.09C493.12,231.09,492.14,158.82,461.12,106.18Z" style="fill:#00123A"></path><path d="M461.12,106.18q-2.37-4-5-7.9C433,63.94,393.06,40.44,353.82,29.82a231.78,231.78,0,0,0-52.71-7.69c-116.62-3.95-163.06,88-201.61,111.68S1.67,198,5.62,283s65.23,165,183.82,170,126.49-48.42,192.71-68.19c43.81-13.08,75-57.26,90.19-98.09C493.12,231.09,492.14,158.82,461.12,106.18Z" style="fill:#fff;opacity:0.7000000000000001"></path></g><g id="freepik--Floor--inject-32"><line x1="440.97" y1="401.81" x2="453.56" y2="401.81" style="fill:#fff;stroke:#263238;stroke-linecap:round;stroke-linejoin:round"></line><line x1="30.89" y1="401.81" x2="433.99" y2="401.81" style="fill:#fff;stroke:#263238;stroke-linecap:round;stroke-linejoin:round"></line></g><g id="freepik--speech-bubble--inject-32"><path d="M367.48,52.52a30.54,30.54,0,0,0-19.42,54.11l-9.26,14.89,16.53-10.44a30.54,30.54,0,1,0,12.15-58.56Z" style="fill:#fff;stroke:#263238;stroke-linecap:round;stroke-linejoin:round"></path><path d="M361.79,105.8V97.28h8.63v8.52Zm2.8-11.54L362,60.52H371l-3.31,33.74Z"></path></g><g id="freepik--Character--inject-32"><path d="M274.61,86.82s-12.84,5.05-15.45,12.61-.65,10.51-1.31,16-8.7,8.62-7.83,14.71,8.92,5,4.57,10.72-10.23,4.42-6.1,13.67,15.68,21,37.87,18.92S321,164.81,324,159.76s6.74-10.51,3.7-12.82-7.62-1.68-5.45-6.1,5.23-5.46,3.05-11.56-15.45-4.83-12.4-13,3-12.4-3.7-20S287.67,81.15,274.61,86.82Z" style="fill:#263238;stroke:#263238;stroke-linecap:round;stroke-linejoin:round"></path><path d="M241.22,289.26c.22-.67-.67,24.76-.23,33.46s.67,19.85,1.12,31.23.67,33.91.89,36.58-1.12,12.27-1.12,12.27,1.34,2.23,5.58,1.56,4.46.9,5.58-2.23,3.34-11.82,6.24-26.76,4.69-22.53,3.8-28.78-2-12.27-2-13.16,7.58-38.81,7.58-38.81Z" style="fill:#fff;stroke:#263238;stroke-linecap:round;stroke-linejoin:round"></path><path d="M239.21,399.23s-2.68,4.91-3.57,6-7.14,4.46-9.59,6.24-4.46,2.9-2.23,5.36,12.93,2,16.06.89,6.91-4.24,9.14-4.24,6.47,0,6.47-4.46a48.72,48.72,0,0,0-.44-7.14s1.56-2.23-1.34-1.78a23.56,23.56,0,0,0-6.47,2.45S242.78,394.55,239.21,399.23Z" style="fill:#00123A;stroke:#263238;stroke-linecap:round;stroke-linejoin:round"></path><path d="M255.45,409.77a37.92,37.92,0,0,0-4.64.39c-6.25.9-8,4.69-16.73,6.47-5.66,1.16-9.23-.88-11-2.45-.37.74-.23,1.57.78,2.68,2.23,2.45,12.93,2,16.06.89s6.91-4.24,9.14-4.24S255,413.51,255.45,409.77Z" style="fill:#fff;stroke:#263238;stroke-linecap:round;stroke-linejoin:round"></path><path d="M288.51,295.06s9.14,32.57,11.37,38.15a68.67,68.67,0,0,0,6.92,12s10.7,29,14.05,36.14,6.47,19.18,7.14,21.19a50.32,50.32,0,0,1,1.78,6.47c0,.67,1.79,4,4.91,2.45s3.57-6.24,3.57-6.24-.45-12.5-3.12-32.79-6.7-28.33-8.7-31.9-2.9-3.57-3.13-6.25S318,292.38,318,291.49,295.2,296.85,288.51,295.06Z" style="fill:#fff;stroke:#263238;stroke-linecap:round;stroke-linejoin:round"></path><path d="M335.57,408.16a6.08,6.08,0,0,0-3.57-3.57c-2.67-.9-4.46,0-5.13,2.45s-1.78,5.58-1.78,5.58-4.24,7.14-5.8,9.37.69,7.21,6.54,7.1c7-.15,9.3-1.53,11.3-6a100.57,100.57,0,0,0,4-11.37c1.34-4-1.34-8.93-1.34-8.93L338.25,401S336.69,406.59,335.57,408.16Z" style="fill:#00123A;stroke:#263238;stroke-linecap:round;stroke-linejoin:round"></path><path d="M341.34,407.33c-.59,1.64-1.44,4-2.49,7.18-2.15,6.45-1.79,10.87-10.51,11.59-6.35.52-8.7-1.17-9.51-2.13.2,2.35,2.56,5.21,7,5.12,7-.15,9.3-1.53,11.3-6a100.57,100.57,0,0,0,4-11.37A9,9,0,0,0,341.34,407.33Z" style="fill:#fff;stroke:#263238;stroke-linecap:round;stroke-linejoin:round"></path><path d="M256.16,233.05a57.58,57.58,0,0,0-13.38,21.86c-4.24,13.16-6.92,34.8-6.92,34.8s6.69,3.57,24.32,6.69,20.07,1.78,20.07,1.78,9.37,2,24.32-.66,24.09-7.14,24.09-7.14-4.69-32.57-8.93-41.27a75.36,75.36,0,0,0-8.25-13.61Z" style="fill:#00123A;stroke:#263238;stroke-linecap:round;stroke-linejoin:round"></path><polyline points="271.11 271.19 277.8 281.45 280.25 298.18" style="fill:none;stroke:#263238;stroke-linecap:round;stroke-linejoin:round"></polyline><path d="M303.23,238s3.34,4.68,4,14" style="fill:none;stroke:#263238;stroke-linecap:round;stroke-linejoin:round"></path><line x1="295.87" y1="239.07" x2="297.43" y2="247.33" style="fill:none;stroke:#263238;stroke-linecap:round;stroke-linejoin:round"></line><path d="M264.64,235.73s-3.13,8.7-3.35,10.93" style="fill:none;stroke:#263238;stroke-linecap:round;stroke-linejoin:round"></path><line x1="259.28" y1="234.61" x2="256.83" y2="239.07" style="fill:none;stroke:#263238;stroke-linecap:round;stroke-linejoin:round"></line><path d="M256.19,227.25l0,5.8s6.92,3.79,26.77,5.35c19.57,1.54,28.55-2.9,28.55-2.9v-5.13Z" style="fill:#263238;stroke:#263238;stroke-linecap:round;stroke-linejoin:round"></path><path d="M293.24,141.94s-.21,10.8.42,13.13.85,3.81,5.5,3,6.35-3.39,11.86-2.12,7.83,8.89,7.62,21.59-5.08,24.35-5.5,30.27.21,18.42-.85,20.33-2.54,5.29-22.23,3.38-31.12-2.75-33.87-4.23-.42-5.93.21-7.41,2.33-9.1.64-14A27.45,27.45,0,0,1,256,190a130.85,130.85,0,0,0,1.91-14.6s-21.59,16.08-26.46,16.51-4.87-2.75-3.18-5.72,10.16-8.89,15.24-18,9.32-11.64,15-12.7,15.88,1.06,15.88,1.06,3-10.8,1.9-16.3Z" style="fill:#fff;stroke:#263238;stroke-linecap:round;stroke-linejoin:round"></path><path d="M312.29,228.1c1.06-1.91.42-14.4.85-20.33.25-3.54,2.08-9.12,3.57-15.75a23,23,0,0,1-8.87-16.42,65.74,65.74,0,0,1,.67-20c-3.65-.1-5.48,1.76-9.35,2.46a7.34,7.34,0,0,1-3.62,0,15.81,15.81,0,0,1-11.62,3.77c-6.85-.65-10.05-4.07-11.16-5.6-1.65-.29-4.36-.71-7.18-.92-1.09,6.66-7.69,20.07-7.69,20.07A130.85,130.85,0,0,1,256,190,27.45,27.45,0,0,0,257,205.87c1.69,4.87,0,12.49-.64,14s-3,5.93-.21,7.41,14.19,2.33,33.87,4.23S311.23,230,312.29,228.1Z" style="fill:#fff;stroke:#263238;stroke-linecap:round;stroke-linejoin:round"></path><circle cx="274.2" cy="157.36" r="1.03" style="fill:#263238;stroke:#263238;stroke-linecap:round;stroke-linejoin:round"></circle><path d="M275.24,160.08a1,1,0,1,0-2.07,0,1,1,0,0,0,2.07,0Z" style="fill:#263238;stroke:#263238;stroke-linecap:round;stroke-linejoin:round"></path><path d="M275.52,162.7a1,1,0,0,0-2.07,0,1,1,0,1,0,2.07,0Z" style="fill:#263238;stroke:#263238;stroke-linecap:round;stroke-linejoin:round"></path><path d="M276,165.77a1,1,0,1,0-1,1A1,1,0,0,0,276,165.77Z" style="fill:#263238;stroke:#263238;stroke-linecap:round;stroke-linejoin:round"></path><circle cx="275.24" cy="168.74" r="1.03" style="fill:#263238;stroke:#263238;stroke-linecap:round;stroke-linejoin:round"></circle><path d="M276.79,171.46a1,1,0,1,0-2.07,0,1,1,0,0,0,2.07,0Z" style="fill:#263238;stroke:#263238;stroke-linecap:round;stroke-linejoin:round"></path><path d="M277.18,174.3a1,1,0,1,0-1,1A1,1,0,0,0,277.18,174.3Z" style="fill:#263238;stroke:#263238;stroke-linecap:round;stroke-linejoin:round"></path><path d="M277.69,176.5a1,1,0,1,0-1,1A1,1,0,0,0,277.69,176.5Z" style="fill:#263238;stroke:#263238;stroke-linecap:round;stroke-linejoin:round"></path><path d="M278.21,179a1,1,0,1,0-1,1A1,1,0,0,0,278.21,179Z" style="fill:#263238;stroke:#263238;stroke-linecap:round;stroke-linejoin:round"></path><path d="M279.38,181.54a1,1,0,1,0-1,1A1,1,0,0,0,279.38,181.54Z" style="fill:#263238;stroke:#263238;stroke-linecap:round;stroke-linejoin:round"></path><circle cx="280.02" cy="183.36" r="1.03" style="fill:#263238;stroke:#263238;stroke-linecap:round;stroke-linejoin:round"></circle><circle cx="282.35" cy="183.61" r="1.03" style="fill:#263238;stroke:#263238;stroke-linecap:round;stroke-linejoin:round"></circle><circle cx="285.32" cy="183.48" r="1.03" style="fill:#263238;stroke:#263238;stroke-linecap:round;stroke-linejoin:round"></circle><circle cx="287.78" cy="182.19" r="1.03" style="fill:#263238;stroke:#263238;stroke-linecap:round;stroke-linejoin:round"></circle><path d="M290.76,180a1,1,0,1,0-1,1A1,1,0,0,0,290.76,180Z" style="fill:#263238;stroke:#263238;stroke-linecap:round;stroke-linejoin:round"></path><circle cx="291.4" cy="177.41" r="1.03" style="fill:#263238;stroke:#263238;stroke-linecap:round;stroke-linejoin:round"></circle><path d="M293.34,175a1,1,0,1,0-1,1A1,1,0,0,0,293.34,175Z" style="fill:#263238;stroke:#263238;stroke-linecap:round;stroke-linejoin:round"></path><path d="M294.64,172.49a1,1,0,1,0-1,1A1,1,0,0,0,294.64,172.49Z" style="fill:#263238;stroke:#263238;stroke-linecap:round;stroke-linejoin:round"></path><circle cx="294.25" cy="169.91" r="1.03" style="fill:#263238;stroke:#263238;stroke-linecap:round;stroke-linejoin:round"></circle><path d="M296.7,167.45a1,1,0,1,0-1,1A1,1,0,0,0,296.7,167.45Z" style="fill:#263238;stroke:#263238;stroke-linecap:round;stroke-linejoin:round"></path><path d="M297.35,165.12a1,1,0,0,0-2.07,0,1,1,0,1,0,2.07,0Z" style="fill:#263238;stroke:#263238;stroke-linecap:round;stroke-linejoin:round"></path><path d="M298,162.53a1,1,0,1,0-1,1A1,1,0,0,0,298,162.53Z" style="fill:#263238;stroke:#263238;stroke-linecap:round;stroke-linejoin:round"></path><path d="M298.64,160.34a1,1,0,1,0-1,1A1,1,0,0,0,298.64,160.34Z" style="fill:#263238;stroke:#263238;stroke-linecap:round;stroke-linejoin:round"></path><circle cx="298.13" cy="158.03" r="1.03" style="fill:#263238;stroke:#263238;stroke-linecap:round;stroke-linejoin:round"></circle><path d="M289.07,99s-2,4.92-3.2,6.4-5.16,3.2-8.85,2.95-6.16-1.47-9.6,1.72-2,9.11-2,10.09,2.71,16.24,3.69,19.2S280,148.74,282.92,149s10.09-3.93,12.8-6.64,3.2-11.07,3.93-13.29,1.24-10.82,1.24-10.82a6.47,6.47,0,0,0-3-6.65C294,108.87,288.09,103.71,289.07,99Z" style="fill:#fff;stroke:#263238;stroke-linecap:round;stroke-linejoin:round"></path><path d="M279.86,127.24s1.69,1.69,3.26,1.56a5.45,5.45,0,0,0,3.52-2.08" style="fill:none;stroke:#263238;stroke-linecap:round;stroke-linejoin:round"></path><path d="M270.22,115.12s.78-3.64,5.6-2.86" style="fill:none;stroke:#263238;stroke-linecap:round;stroke-linejoin:round"></path><path d="M288.46,111.87s5.6-1.18,7,2.47" style="fill:none;stroke:#263238;stroke-linecap:round;stroke-linejoin:round"></path><ellipse cx="275.89" cy="120.66" rx="1.37" ry="2.67" transform="translate(-9.9 25.81) rotate(-5.26)" style="fill:#263238"></ellipse><path d="M291.84,120.81c-.17,1.47-.91,2.59-1.66,2.51s-1.22-1.35-1.06-2.81.91-2.59,1.66-2.5S292,119.35,291.84,120.81Z" style="fill:#263238"></path><path d="M265.79,122.55s-2.61-5.6-4.17-.91.78,7.16,2.22,8.34a42,42,0,0,0,3.77,2.6Z" style="fill:#fff;stroke:#263238;stroke-linecap:round;stroke-linejoin:round"></path><path d="M300.84,122s2.6-4,3.65-.39-.13,5.86-1.57,7.43a36.42,36.42,0,0,1-4,3.51l1.31-5.21Z" style="fill:#fff;stroke:#263238;stroke-linecap:round;stroke-linejoin:round"></path><path d="M265.53,159.94s1.69-10.29,2.21-12.76,1.83-5,2.87-9.25,1.82-4.43,2.74-3.52.78,3.12.52,4.17-.65,2.73-.65,2.73,3.12-4.56,4.3-6.51,2.08-3,3-2.74a1.4,1.4,0,0,1,.91,1.83,31.76,31.76,0,0,0,2.22-3.26c.26-.52,1.17-.65,1.95.26a2.08,2.08,0,0,1,.39,2.21c-.13.66-1.43,4.56-1.43,4.56s1.83-1.69,2.61-1.43.78,1.7-.13,3.39-1.83,6-2.09,7-.59,2.33-.59,2.33a10.7,10.7,0,0,0,3.2-3.24c1.43-2.21,1.82-3.65,2.47-2.86s0,2.08-.78,3.77a15.44,15.44,0,0,1-4.95,7.17c-3.91,3.52-8,8-9.64,9.77s-11.6,13.16-17.33,19.94-15.63,16.67-18.24,19.41-5.86,6.12-12.12,2.22-4.17-13.29.13-17.59,27.23-15.9,31.27-19.42A47.35,47.35,0,0,0,265.53,159.94Z" style="fill:#fff;stroke:#263238;stroke-linecap:round;stroke-linejoin:round"></path><line x1="281.42" y1="133.89" x2="275.95" y2="146" style="fill:none;stroke:#263238;stroke-linecap:round;stroke-linejoin:round"></line><line x1="284.55" y1="137.66" x2="280.38" y2="148.09" style="fill:none;stroke:#263238;stroke-linecap:round;stroke-linejoin:round"></line><line x1="284.35" y1="148.98" x2="283.25" y2="151.21" style="fill:none;stroke:#263238;stroke-linecap:round;stroke-linejoin:round"></line><path d="M273.22,141.31s-2.83,2.48-3.47,4.4" style="fill:none;stroke:#263238;stroke-linecap:round;stroke-linejoin:round"></path><path d="M314.76,176.92l16.76,17.53s-12.19,15.81-15.81,19.81a57.48,57.48,0,0,1-6.29,6.1s-5.52-1.15-7.24-2.67-3-4-5.9-5.91-10.67-2.66-10.1-.95,5.34,2.1,5.34,2.1l4.57,4.19,1,3a11.66,11.66,0,0,1-4.38-2.48c-1.71-1.72-6.67-3.05-6.29-.76s2.29,2.28,5,4.76,3,4.57,5.71,6.09a9.87,9.87,0,0,0,5.91,1,6.46,6.46,0,0,0,5.33,1.71c3.43-.38,4.76-1.33,6.29-3.43S337.81,211.4,341,207.21s10.29-11.43,10.67-13.71-4.19-7.81-8-12.39-7.9-9.61-17.14-20.76c-5.53-6.67-13.72-8.38-18.86-3.43" style="fill:#fff;stroke:#263238;stroke-linecap:round;stroke-linejoin:round"></path><path d="M303.14,216.58s-5-5.16-6.41-5.91-3.13.49-5.21,2.26-1,2.39.3,2,4.15-1.76,4.15-1.76l4,5.28" style="fill:#fff;stroke:#263238;stroke-linecap:round;stroke-linejoin:round"></path><path d="M306.79,218.09s-2.52-3.78-3.27-4.15-4.66,4.65-5.16,5.78-1.13,3.4.25,3,2.77-2.14,3.4-2.89a3.77,3.77,0,0,1,1.89-1l1,1.26" style="fill:#fff;stroke:#263238;stroke-linecap:round;stroke-linejoin:round"></path><path d="M310.43,222.36a20,20,0,0,0-2.38-4.65c-1.14-1.26-3.4.25-4.15,1.13s-1.26,4.4-1.77,5.53.38,1.39,1.51.51a17.09,17.09,0,0,0,2.77-3.27" style="fill:#fff;stroke:#263238;stroke-linecap:round;stroke-linejoin:round"></path></g></svg>