<svg width="32" height="32" viewBox="0 0 32 32" fill="none" xmlns="http://www.w3.org/2000/svg">
<path d="M17.5067 29.5866L15.3333 24.48C17.4267 23.7066 19.3867 22.6666 21.2 21.4533L17.5067 29.5866ZM7.52 16.6666L2.41333 14.4933L10.5467 10.8C9.33333 12.6133 8.29333 14.5733 7.52 16.6666ZM25.6267 5.33331C26 5.33331 26.3333 5.33331 26.6133 5.39997C26.84 7.25331 26.5867 11.0666 22.2133 15.44C19.9467 17.72 17.24 19.4666 14.2 20.6266L11.3333 17.8266C12.56 14.7466 14.3067 12.04 16.56 9.78664C20.24 6.10664 23.52 5.33331 25.6267 5.33331ZM25.6267 2.66664C22.9867 2.66664 18.9867 3.58664 14.6667 7.90664C11.7467 10.8266 10 14.04 8.86666 16.8533C8.49333 17.8533 8.74666 18.9466 9.48 19.6933L12.32 22.52C12.8267 23.0266 13.5067 23.3333 14.2133 23.3333C14.52 23.3333 14.84 23.2533 15.1467 23.1333C18 22.04 21.1733 20.2533 24.0933 17.3333C31.64 9.78664 28.8133 3.18664 28.8133 3.18664C28.8133 3.18664 27.6 2.66664 25.6267 2.66664ZM19.3867 12.6133C18.3467 11.5733 18.3467 9.87997 19.3867 8.83997C20.4267 7.79997 22.12 7.79997 23.16 8.83997C24.1867 9.87997 24.2 11.5733 23.16 12.6133C22.12 13.6533 20.4267 13.6533 19.3867 12.6133ZM11.84 22.04L9.96 20.16L11.84 22.04ZM8.32 29.3333L13.1733 24.48C12.72 24.36 12.28 24.16 11.88 23.88L6.44 29.3333H8.32ZM2.66666 29.3333H4.54666L10.9067 22.9866L9.01333 21.1066L2.66666 27.4533V29.3333ZM2.66666 25.56L8.12 20.12C7.84 19.72 7.64 19.2933 7.52 18.8266L2.66666 23.68V25.56Z" fill="white"/>
</svg>
