<svg width="24" height="24" viewBox="0 0 24 24" fill="none" xmlns="http://www.w3.org/2000/svg">
<g clip-path="url(#clip0)">
<path d="M11.2936 15.5619V6.29181C11.2936 5.90344 10.9788 5.58868 10.5905 5.58868C10.2023 5.58868 9.88733 5.90344 9.88733 6.29181V15.5619C8.65137 15.8761 7.73438 16.9982 7.73438 18.3308C7.73438 19.9059 9.01556 21.1873 10.5905 21.1873C12.1653 21.1873 13.4467 19.9059 13.4467 18.3308C13.4467 16.9982 12.5295 15.8761 11.2936 15.5619ZM10.5905 19.781C9.79102 19.781 9.14062 19.1304 9.14062 18.3308C9.14062 17.531 9.79102 16.8804 10.5905 16.8804C11.3901 16.8804 12.0405 17.531 12.0405 18.3308C12.0405 19.1304 11.3901 19.781 10.5905 19.781Z" fill="white"/>
<path d="M14.0801 13.8622V3.48999C14.0801 1.56555 12.5147 0 10.5905 0C8.66638 0 7.10101 1.56555 7.10101 3.48999V13.8622C5.72992 14.9339 4.92188 16.5773 4.92188 18.3303C4.92188 21.4567 7.46484 24 10.5905 24C13.7162 24 16.2592 21.4567 16.2592 18.3303C16.2592 16.5773 15.4512 14.9339 14.0801 13.8622ZM10.5905 22.5938C8.24011 22.5938 6.32812 20.6812 6.32812 18.3303C6.32812 16.9162 7.02759 15.5967 8.19928 14.8008C8.39191 14.6699 8.50726 14.452 8.50726 14.2191V3.48999C8.50726 2.341 9.44183 1.40625 10.5905 1.40625C11.7393 1.40625 12.6738 2.341 12.6738 3.48999V14.2191C12.6738 14.452 12.7892 14.6699 12.9818 14.8008C14.1535 15.5967 14.853 16.9162 14.853 18.3303C14.853 20.6812 12.9408 22.5938 10.5905 22.5938Z" fill="white"/>
<path d="M18.3686 11.226H16.1895C15.8011 11.226 15.4863 11.5407 15.4863 11.9291C15.4863 12.3175 15.8011 12.6322 16.1895 12.6322H18.3686C18.7568 12.6322 19.0717 12.3175 19.0717 11.9291C19.0717 11.5407 18.7568 11.226 18.3686 11.226Z" fill="white"/>
<path d="M18.3686 8.4129H16.1895C15.8011 8.4129 15.4863 8.72766 15.4863 9.11603C15.4863 9.50439 15.8011 9.81915 16.1895 9.81915H18.3686C18.7568 9.81915 19.0717 9.50439 19.0717 9.11603C19.0717 8.72766 18.7568 8.4129 18.3686 8.4129Z" fill="white"/>
<path d="M18.3686 5.59979H16.1895C15.8011 5.59979 15.4863 5.91455 15.4863 6.30292C15.4863 6.69128 15.8011 7.00604 16.1895 7.00604H18.3686C18.7568 7.00604 19.0717 6.69128 19.0717 6.30292C19.0717 5.91455 18.7568 5.59979 18.3686 5.59979Z" fill="white"/>
<path d="M16.1895 4.19296H18.3686C18.7568 4.19296 19.0717 3.8782 19.0717 3.48984C19.0717 3.10165 18.7568 2.78671 18.3686 2.78671H16.1895C15.8011 2.78671 15.4863 3.10165 15.4863 3.48984C15.4863 3.8782 15.8011 4.19296 16.1895 4.19296Z" fill="white"/>
</g>
<defs>
<clipPath id="clip0">
<rect width="24" height="24" fill="white"/>
</clipPath>
</defs>
</svg>
